<svg width="901" height="880" viewBox="0 0 901 880" fill="none" xmlns="http://www.w3.org/2000/svg">
<path d="M822.3 806.6H76.1C75.5 806.6 75.1 806.1 75.1 805.6L75.4 74.3999C75.4 73.7999 75.9 73.3999 76.4 73.3999H77.9L824.9 74.2999C825.5 74.2999 825.9 74.7999 825.9 75.2999V773.8C825.9 774.8 824.7 775.2 824.1 774.5L809 758.1C803.8 751.2 797.8 747.8 791.9 748.1C785.9 748.4 780.2 752.7 775.9 760C769.9 770 760.7 775.5 751.7 774.4C743.5 773.4 737.1 767.2 734.1 757.3C731.5 750.8 725.8 746.6 719.1 746.2C711.9 745.8 705.3 750.1 701.5 757.5C697.2 767.8 689.9 773.6 681.3 773.3C672 773 663.3 765.7 659.6 755C657 748.5 651.4 744.2 644.5 743.6C637.2 742.9 630.3 746.5 626.1 753.1C617.4 769.1 603.6 774 593.5 773.1C582.9 772.2 574.4 765.4 570.7 754.8L372.2 181.9C371.9 181 370.6 181 370.2 181.9L128 767.8" stroke="#B2A9A0" stroke-width="4" stroke-linecap="square" stroke-linejoin="round"/>
</svg>
