<svg
  id="Layer_1"
  xmlns="http://www.w3.org/2000/svg"
  viewBox="0 0 901.001 880.002"
>
 
  <path
    class="cls-1"
    d="M896.742,880.002H1.259C.563,880.002,0,879.438,0,878.743L.315,1.258C.315.563.88,0,1.575,0l1.743.002,896.425,1.076c.695,0,1.257.564,1.257,1.259v838.202c0,1.147-1.408,1.696-2.185.853l-18.085-19.629c-.022-.024-.044-.05-.064-.076-6.296-8.247-13.397-12.388-20.528-11.974-7.186.416-14.014,5.48-19.226,14.263-7.174,11.97-18.291,18.574-29.022,17.258-9.794-1.206-17.486-8.665-21.126-20.474-.011-.036-.024-.072-.037-.106-3.105-7.786-9.984-12.867-17.993-13.273-8.624-.444-16.515,4.625-21.15,13.546-.017.033-.033.067-.047.101-5.122,12.356-13.932,19.277-24.23,18.952-11.184-.335-21.642-9.155-26.041-21.957-3.064-7.785-9.812-12.901-18.064-13.691-8.772-.834-17.025,3.423-22.122,11.409-.017.027-.034.056-.05.084-10.488,19.212-27.059,25.023-39.077,24.06-12.707-1.021-22.946-9.211-27.39-21.905L356.505,130.237c-.379-1.095-1.911-1.14-2.353-.069L63.464,833.338c-.266.643-1.002.948-1.645.682l-3.218-1.331c-.642-.266-.948-1.002-.682-1.644L354.649,113.26c.443-1.071,1.974-1.026,2.353.069l243.228,702.677c3.633,10.377,11.935,17.071,22.205,17.897,10.174.816,24.285-4.29,33.395-21.074l.1-.171c6.324-10.017,16.722-15.359,27.845-14.301,10.415.996,19.269,7.717,23.104,17.538l.045.122c3.527,10.319,11.984,17.707,20.565,17.964,7.787.232,14.399-5.237,18.57-15.405l.105-.229c5.732-11.183,15.757-17.504,26.875-16.96,10.451.53,19.394,7.135,23.339,17.236l.076.22c2.897,9.536,8.791,15.526,16.17,16.435,8.338,1.018,17.206-4.482,23.137-14.376,6.256-10.54,14.793-16.645,24.033-17.179,6.408-.37,16.036,1.8,25.56,14.214.02.026.041.051.063.075l7.4,8.024c.777.843,2.184.293,2.184-.853V8.33c0-.695-.563-1.258-1.257-1.259L7.573,6.007c-.696,0-1.26.563-1.26,1.258l-.311,865.477c0,.695.563,1.259,1.259,1.259h889.481c.695,0,1.259.564,1.259,1.259v3.482c0,.695-.564,1.259-1.259,1.259Z"
  />
</svg>